<?xml version="1.0" encoding="utf-8"?>
<!-- Generator: Adobe Illustrator 19.2.1, SVG Export Plug-In . SVG Version: 6.00 Build 0)  -->
<svg version="1.1" id="Layer_1" xmlns="http://www.w3.org/2000/svg" xmlns:xlink="http://www.w3.org/1999/xlink" x="0px" y="0px"
	 viewBox="0 0 800 350" style="enable-background:new 0 0 800 350;" xml:space="preserve">
<style type="text/css">
	.st0{fill:none;stroke:#BCBCBC;stroke-width:0.25;stroke-miterlimit:10;}
	.st1{enable-background:new    ;}
	.st2{fill:#0097A7;}
	.st3{fill:#222222;}
	.st4{fill:none;stroke:#0097A7;stroke-width:7;stroke-linecap:round;stroke-miterlimit:10;}
</style>
<g id="Layer_1_1_">
	<line class="st0" x1="0" y1="0" x2="800" y2="0"/>
	<line class="st0" x1="0" y1="50" x2="800" y2="50"/>
	<line class="st0" x1="0" y1="100" x2="800" y2="100"/>
	<line class="st0" x1="0" y1="150" x2="800" y2="150"/>
	<line class="st0" x1="0" y1="200" x2="800" y2="200"/>
	<line class="st0" x1="0" y1="250" x2="800" y2="250"/>
	<line class="st0" x1="0" y1="300" x2="800" y2="300"/>
	<line class="st0" x1="0" y1="350" x2="800" y2="350"/>
	<line class="st0" x1="0" y1="0" x2="0" y2="350"/>
	<line class="st0" x1="746.7" y1="0" x2="746.7" y2="350"/>
	<line class="st0" x1="693.3" y1="0" x2="693.3" y2="350"/>
	<line class="st0" x1="640" y1="0" x2="640" y2="350"/>
	<line class="st0" x1="586.7" y1="0" x2="586.7" y2="350"/>
	<line class="st0" x1="533.3" y1="0" x2="533.3" y2="350"/>
	<line class="st0" x1="480" y1="0" x2="480" y2="350"/>
	<line class="st0" x1="426.7" y1="0" x2="426.7" y2="350"/>
	<line class="st0" x1="373.3" y1="0" x2="373.3" y2="350"/>
	<line class="st0" x1="320" y1="0" x2="320" y2="350"/>
	<line class="st0" x1="266.7" y1="0" x2="266.7" y2="350"/>
	<line class="st0" x1="213.3" y1="0" x2="213.3" y2="350"/>
	<line class="st0" x1="160" y1="0" x2="160" y2="350"/>
	<line class="st0" x1="106.7" y1="0" x2="106.7" y2="350"/>
	<line class="st0" x1="53.3" y1="0" x2="53.3" y2="350"/>
	<line class="st0" x1="800" y1="0" x2="800" y2="350"/>
</g>
<g id="Layer_2">
	<g>
		<g class="st1">
			<path class="st2" d="M122.7,203.7c2.4,2.8,6.2,5.3,11.5,5.3c7.5,0,9.7-4.2,9.7-7.3c0-5.2-4.9-6.6-10.1-8c-5.8-1.6-12-3.2-12-10
				c0-6,5.4-9.8,12.1-9.8c5.5,0,9.6,1.9,12.4,5.2l-2.1,2.3c-2.6-3.2-6.4-4.6-10.5-4.6c-4.9,0-8.6,2.8-8.6,6.8c0,4.3,4.6,5.6,9.6,6.9
				c5.9,1.7,12.4,3.6,12.4,11c0,4.7-3.1,10.4-13.1,10.4c-6.1,0-10.6-2.4-13.4-5.8L122.7,203.7z"/>
			<path class="st2" d="M154.1,206.1v-18.9h-4.4v-2.5h4.4v-7.3h2.9v7.3h5.4v2.5H157v18.5c0,2.1,0.9,3.6,2.8,3.6c1.3,0,2.4-0.6,3-1.3
				l1.1,2.2c-1,1-2.3,1.7-4.5,1.7C155.8,211.9,154.1,209.7,154.1,206.1z"/>
			<path class="st2" d="M185.6,208.1c-2.4,2.6-5.3,3.8-9,3.8c-4.6,0-9.3-3.1-9.3-8.9c0-5.8,4.7-8.8,9.3-8.8c3.7,0,6.7,1.2,9,3.8
				v-5.4c0-4-3.2-6.1-7.2-6.1c-3.3,0-5.9,1.2-8.3,3.9l-1.6-2c2.8-3,5.8-4.5,10.2-4.5c5.4,0,9.7,2.6,9.7,8.5v18.7h-2.9V208.1z
				 M185.6,200.2c-1.9-2.4-4.8-3.7-8-3.7c-4.4,0-7.3,2.8-7.3,6.6c0,3.7,2.9,6.6,7.3,6.6c3.2,0,6.2-1.2,8-3.6V200.2z"/>
			<path class="st2" d="M197.4,184.6h2.9v4.6c2.3-3,5.3-5.1,9-5.1v3.1c-0.5-0.1-0.9-0.1-1.4-0.1c-2.7,0-6.3,2.4-7.5,4.7v19.4h-2.9
				V184.6z"/>
			<path class="st2" d="M215.4,206.1v-18.9H211v-2.5h4.4v-7.3h2.9v7.3h5.4v2.5h-5.4v18.5c0,2.1,0.9,3.6,2.8,3.6c1.3,0,2.4-0.6,3-1.3
				l1.1,2.2c-1,1-2.3,1.7-4.5,1.7C217.1,211.9,215.4,209.7,215.4,206.1z"/>
			<path class="st2" d="M244.3,174.5h2.9v14.4c2.1-3,5.5-5,9.3-5c7.1,0,11.9,5.6,11.9,14c0,8.5-4.8,13.9-11.9,13.9
				c-4,0-7.4-2.1-9.3-4.9v4.2h-2.9V174.5z M255.9,209.3c5.9,0,9.3-4.9,9.3-11.3s-3.4-11.4-9.3-11.4c-3.7,0-7.2,2.3-8.8,4.8v13.2
				C248.7,207.1,252.2,209.3,255.9,209.3z"/>
			<path class="st2" d="M293.7,207.3c-2.2,2.4-5.7,4.6-9.6,4.6c-5.5,0-8.4-2.5-8.4-8.5v-18.7h2.9v18.1c0,5.2,2.6,6.6,6.4,6.6
				c3.4,0,6.9-2,8.6-4.4v-20.3h2.9v26.6h-2.9V207.3z"/>
			<path class="st2" d="M304.7,178.2c0-1.2,1-2.1,2.2-2.1c1.2,0,2.2,0.9,2.2,2.1s-1,2.2-2.2,2.2
				C305.7,180.4,304.7,179.4,304.7,178.2z M305.5,184.6h2.9v26.6h-2.9V184.6z"/>
			<path class="st2" d="M317.2,174.5h2.9v36.7h-2.9V174.5z"/>
			<path class="st2" d="M348.6,207c-1.9,2.8-5.3,4.9-9.3,4.9c-7,0-11.9-5.4-11.9-13.9c0-8.4,4.8-14,11.9-14c3.8,0,7.1,1.9,9.3,5
				v-14.4h2.9v36.7h-2.9V207z M348.6,191.4c-1.5-2.6-5-4.8-8.8-4.8c-5.9,0-9.3,5-9.3,11.4s3.4,11.3,9.3,11.3c3.7,0,7.2-2.2,8.8-4.7
				V191.4z"/>
			<path class="st2" d="M359.7,178.2c0-1.2,1-2.1,2.2-2.1c1.2,0,2.2,0.9,2.2,2.1s-1,2.2-2.2,2.2
				C360.7,180.4,359.7,179.4,359.7,178.2z M360.5,184.6h2.9v26.6h-2.9V184.6z"/>
			<path class="st2" d="M390.2,193.2c0-5.1-2.6-6.7-6.4-6.7c-3.4,0-6.9,2.1-8.6,4.6v20.1h-2.9v-26.6h2.9v4c1.9-2.3,5.7-4.7,9.6-4.7
				c5.4,0,8.4,2.6,8.4,8.6v18.6h-2.9V193.2z"/>
			<path class="st2" d="M403.7,215.8c2.3,2.8,4.8,3.7,8.8,3.7c4.8,0,9.1-2.4,9.1-8.5v-4.2c-1.9,2.7-5.3,5-9.3,5
				c-7,0-11.9-5.3-11.9-13.9c0-8.4,4.8-13.9,11.9-13.9c3.8,0,7.1,1.9,9.3,5v-4.3h2.9v26.3c0,8.2-5.5,11.1-12,11.1
				c-4.5,0-7.3-0.8-10.5-4L403.7,215.8z M421.6,191.4c-1.5-2.6-5.1-4.8-8.8-4.8c-5.9,0-9.3,4.9-9.3,11.3c0,6.4,3.4,11.3,9.3,11.3
				c3.7,0,7.2-2.3,8.8-4.8V191.4z"/>
			<path class="st2" d="M448.7,219.4c1.8,0,3-0.7,4-3.2l2.1-4.7l-11.2-26.8h3.2l9.7,23.2l9.6-23.2h3.2l-13.8,32.4
				c-1.4,3.4-3.7,5-6.8,5c-0.9,0-2.1-0.2-2.8-0.4l0.5-2.6C447,219.3,448,219.4,448.7,219.4z"/>
			<path class="st2" d="M472.6,197.9c0-7.8,5-13.9,12.8-13.9c7.9,0,12.8,6.2,12.8,13.9c0,7.8-5,14-12.8,14
				C477.6,211.9,472.6,205.7,472.6,197.9z M495.1,197.9c0-5.9-3.5-11.3-9.7-11.3c-6.2,0-9.7,5.5-9.7,11.3c0,5.9,3.5,11.4,9.7,11.4
				C491.6,209.3,495.1,203.8,495.1,197.9z"/>
			<path class="st2" d="M523.5,207.3c-2.2,2.4-5.7,4.6-9.6,4.6c-5.5,0-8.4-2.5-8.4-8.5v-18.7h2.9v18.1c0,5.2,2.6,6.6,6.4,6.6
				c3.4,0,6.9-2,8.6-4.4v-20.3h2.9v26.6h-2.9V207.3z"/>
			<path class="st2" d="M535.3,184.6h2.9v4.6c2.3-3,5.3-5.1,9-5.1v3.1c-0.5-0.1-0.9-0.1-1.4-0.1c-2.7,0-6.3,2.4-7.5,4.7v19.4h-2.9
				V184.6z"/>
			<path class="st2" d="M578.4,184c4.6,0,7.3,1.8,9.4,4.5l-2,1.8c-1.9-2.6-4.4-3.7-7.3-3.7c-6.2,0-10,5-10,11.3
				c0,6.4,3.8,11.4,10,11.4c2.9,0,5.3-1.1,7.3-3.7l2,1.8c-2.1,2.8-4.8,4.6-9.4,4.6c-7.8,0-12.9-6.2-12.9-14
				C565.5,190.1,570.6,184,578.4,184z"/>
			<path class="st2" d="M612.2,193.1c0-5.1-2.6-6.6-6.4-6.6c-3.4,0-6.9,2.1-8.6,4.6v20.1h-2.9v-36.7h2.9v14.2
				c1.9-2.3,5.7-4.7,9.6-4.7c5.4,0,8.4,2.5,8.4,8.5v18.7h-2.9V193.1z"/>
			<path class="st2" d="M640.9,208.1c-2.4,2.6-5.3,3.8-9,3.8c-4.6,0-9.3-3.1-9.3-8.9c0-5.8,4.7-8.8,9.3-8.8c3.7,0,6.7,1.2,9,3.8
				v-5.4c0-4-3.2-6.1-7.2-6.1c-3.3,0-5.9,1.2-8.3,3.9l-1.6-2c2.8-3,5.8-4.5,10.2-4.5c5.4,0,9.7,2.6,9.7,8.5v18.7h-2.9V208.1z
				 M640.9,200.2c-1.9-2.4-4.8-3.7-8-3.7c-4.4,0-7.3,2.8-7.3,6.6c0,3.7,2.9,6.6,7.3,6.6c3.2,0,6.2-1.2,8-3.6V200.2z"/>
			<path class="st2" d="M652.6,184.6h2.9v4.6c2.3-3,5.3-5.1,9-5.1v3.1c-0.5-0.1-0.9-0.1-1.4-0.1c-2.7,0-6.3,2.4-7.5,4.7v19.4h-2.9
				V184.6z"/>
			<path class="st2" d="M670.7,206.1v-18.9h-4.4v-2.5h4.4v-7.3h2.9v7.3h5.4v2.5h-5.4v18.5c0,2.1,0.9,3.6,2.8,3.6
				c1.3,0,2.4-0.6,3-1.3l1.1,2.2c-1,1-2.3,1.7-4.5,1.7C672.4,211.9,670.7,209.7,670.7,206.1z"/>
		</g>
		<g class="st1">
			<path class="st3" d="M244.3,241.6l-2.4,8.6h-1l-2.9-10h1l2.4,8.8l2.5-8.8h0.8l2.4,8.8l2.4-8.8h1l-2.9,10h-1L244.3,241.6z"/>
			<path class="st3" d="M254.5,242.8c2.2,0,3.4,1.8,3.4,3.8v0.2h-6.1c0.1,1.6,1.1,2.9,2.8,2.9c0.9,0,1.8-0.3,2.4-1l0.4,0.5
				c-0.7,0.8-1.6,1.2-2.8,1.2c-2.1,0-3.6-1.6-3.6-3.8C251,244.4,252.4,242.8,254.5,242.8z M251.8,246.2h5.3c0-1.2-0.8-2.8-2.6-2.8
				C252.7,243.4,251.9,244.9,251.8,246.2z"/>
			<path class="st3" d="M263.8,242.9h0.8v1.2c0.6-0.8,1.4-1.4,2.4-1.4v0.9c-0.1,0-0.2,0-0.4,0c-0.7,0-1.7,0.7-2.1,1.3v5.3h-0.8
				V242.9z"/>
			<path class="st3" d="M271.6,242.8c2.2,0,3.4,1.8,3.4,3.8v0.2H269c0.1,1.6,1.1,2.9,2.8,2.9c0.9,0,1.8-0.3,2.4-1l0.4,0.5
				c-0.7,0.8-1.6,1.2-2.8,1.2c-2.1,0-3.6-1.6-3.6-3.8C268.1,244.4,269.6,242.8,271.6,242.8z M269,246.2h5.3c0-1.2-0.8-2.8-2.6-2.8
				C269.9,243.4,269,244.9,269,246.2z"/>
			<path class="st3" d="M280.1,242.8c1.3,0,2,0.5,2.6,1.2l-0.5,0.5c-0.5-0.7-1.2-1-2-1c-1.7,0-2.7,1.3-2.7,3.1s1,3.1,2.7,3.1
				c0.8,0,1.5-0.3,2-1l0.5,0.5c-0.6,0.8-1.3,1.2-2.6,1.2c-2.1,0-3.5-1.7-3.5-3.8S278,242.8,280.1,242.8z"/>
			<path class="st3" d="M284,246.5c0-2.1,1.4-3.8,3.5-3.8c2.1,0,3.5,1.7,3.5,3.8s-1.3,3.8-3.5,3.8C285.4,250.4,284,248.7,284,246.5z
				 M290.2,246.5c0-1.6-0.9-3.1-2.7-3.1c-1.7,0-2.6,1.5-2.6,3.1c0,1.6,1,3.1,2.6,3.1C289.2,249.7,290.2,248.2,290.2,246.5z"/>
			<path class="st3" d="M301.6,245.1c0-1-0.4-1.7-1.5-1.7c-0.8,0-1.7,0.6-2.1,1.2v5.5h-0.8v-5.1c0-1-0.4-1.7-1.5-1.7
				c-0.8,0-1.6,0.6-2.1,1.2v5.5H293v-7.2h0.8v1.1c0.3-0.5,1.3-1.3,2.3-1.3c1.1,0,1.7,0.7,1.9,1.4c0.4-0.7,1.4-1.4,2.4-1.4
				c1.3,0,2,0.8,2,2.2v5.2h-0.8V245.1z"/>
			<path class="st3" d="M313.5,245.1c0-1-0.4-1.7-1.5-1.7c-0.8,0-1.7,0.6-2.1,1.2v5.5h-0.8v-5.1c0-1-0.4-1.7-1.5-1.7
				c-0.8,0-1.6,0.6-2.1,1.2v5.5h-0.8v-7.2h0.8v1.1c0.3-0.5,1.3-1.3,2.3-1.3c1.1,0,1.7,0.7,1.9,1.4c0.4-0.7,1.4-1.4,2.4-1.4
				c1.3,0,2,0.8,2,2.2v5.2h-0.8V245.1z"/>
			<path class="st3" d="M319.8,242.8c2.2,0,3.4,1.8,3.4,3.8v0.2h-6.1c0.1,1.6,1.1,2.9,2.8,2.9c0.9,0,1.8-0.3,2.4-1l0.4,0.5
				c-0.7,0.8-1.6,1.2-2.8,1.2c-2.1,0-3.6-1.6-3.6-3.8C316.3,244.4,317.7,242.8,319.8,242.8z M317.1,246.2h5.3c0-1.2-0.8-2.8-2.6-2.8
				C318,243.4,317.2,244.9,317.1,246.2z"/>
			<path class="st3" d="M330.1,245.3c0-1.4-0.7-1.8-1.8-1.8c-0.9,0-1.9,0.6-2.4,1.2v5.5h-0.8v-7.2h0.8v1.1c0.5-0.6,1.6-1.3,2.6-1.3
				c1.5,0,2.3,0.7,2.3,2.4v5.1h-0.8V245.3z"/>
			<path class="st3" d="M338.6,249c-0.5,0.8-1.4,1.3-2.5,1.3c-1.9,0-3.2-1.5-3.2-3.8c0-2.3,1.3-3.8,3.2-3.8c1,0,1.9,0.5,2.5,1.3
				v-3.9h0.8v10h-0.8V249z M338.6,244.8c-0.4-0.7-1.4-1.3-2.4-1.3c-1.6,0-2.5,1.3-2.5,3.1s0.9,3.1,2.5,3.1c1,0,2-0.6,2.4-1.3V244.8z
				"/>
			<path class="st3" d="M346,252.4c0.5,0,0.8-0.2,1.1-0.9l0.6-1.3l-3.1-7.3h0.9l2.6,6.3l2.6-6.3h0.9l-3.8,8.8
				c-0.4,0.9-1,1.3-1.9,1.3c-0.2,0-0.6,0-0.8-0.1l0.1-0.7C345.6,252.4,345.8,252.4,346,252.4z"/>
			<path class="st3" d="M352.5,246.5c0-2.1,1.4-3.8,3.5-3.8c2.1,0,3.5,1.7,3.5,3.8s-1.3,3.8-3.5,3.8
				C353.9,250.4,352.5,248.7,352.5,246.5z M358.7,246.5c0-1.6-0.9-3.1-2.7-3.1c-1.7,0-2.6,1.5-2.6,3.1c0,1.6,1,3.1,2.6,3.1
				C357.7,249.7,358.7,248.2,358.7,246.5z"/>
			<path class="st3" d="M366.4,249.1c-0.6,0.7-1.6,1.2-2.6,1.2c-1.5,0-2.3-0.7-2.3-2.3v-5.1h0.8v4.9c0,1.4,0.7,1.8,1.8,1.8
				c0.9,0,1.9-0.6,2.4-1.2v-5.5h0.8v7.2h-0.8V249.1z"/>
			<path class="st3" d="M373.5,240.2h0.8v3.9c0.6-0.8,1.5-1.3,2.5-1.3c1.9,0,3.2,1.5,3.2,3.8c0,2.3-1.3,3.8-3.2,3.8
				c-1.1,0-2-0.6-2.5-1.3v1.2h-0.8V240.2z M376.7,249.7c1.6,0,2.5-1.3,2.5-3.1s-0.9-3.1-2.5-3.1c-1,0-2,0.6-2.4,1.3v3.6
				C374.7,249.1,375.7,249.7,376.7,249.7z"/>
			<path class="st3" d="M385.1,242.8c2.2,0,3.4,1.8,3.4,3.8v0.2h-6.1c0.1,1.6,1.1,2.9,2.8,2.9c0.9,0,1.8-0.3,2.4-1l0.4,0.5
				c-0.7,0.8-1.6,1.2-2.8,1.2c-2.1,0-3.6-1.6-3.6-3.8C381.6,244.4,383.1,242.8,385.1,242.8z M382.5,246.2h5.3c0-1.2-0.8-2.8-2.6-2.8
				C383.4,243.4,382.6,244.9,382.5,246.2z"/>
			<path class="st3" d="M391,251.4c0.6,0.8,1.3,1,2.4,1c1.3,0,2.5-0.7,2.5-2.3V249c-0.5,0.7-1.4,1.4-2.5,1.4c-1.9,0-3.2-1.5-3.2-3.8
				c0-2.3,1.3-3.8,3.2-3.8c1,0,1.9,0.5,2.5,1.3v-1.2h0.8v7.2c0,2.2-1.5,3-3.3,3c-1.2,0-2-0.2-2.8-1.1L391,251.4z M395.9,244.8
				c-0.4-0.7-1.4-1.3-2.4-1.3c-1.6,0-2.5,1.3-2.5,3.1s0.9,3.1,2.5,3.1c1,0,2-0.6,2.4-1.3V244.8z"/>
			<path class="st3" d="M398.9,241.2c0-0.3,0.3-0.6,0.6-0.6c0.3,0,0.6,0.3,0.6,0.6s-0.3,0.6-0.6,0.6
				C399.2,241.8,398.9,241.5,398.9,241.2z M399.1,242.9h0.8v7.2h-0.8V242.9z"/>
			<path class="st3" d="M407.2,245.3c0-1.4-0.7-1.8-1.8-1.8c-0.9,0-1.9,0.6-2.4,1.2v5.5h-0.8v-7.2h0.8v1.1c0.5-0.6,1.6-1.3,2.6-1.3
				c1.5,0,2.3,0.7,2.3,2.4v5.1h-0.8V245.3z"/>
			<path class="st3" d="M414.3,240.2h0.8v3.9c0.6-0.8,1.5-1.3,2.5-1.3c1.9,0,3.2,1.5,3.2,3.8c0,2.3-1.3,3.8-3.2,3.8
				c-1.1,0-2-0.6-2.5-1.3v1.2h-0.8V240.2z M417.5,249.7c1.6,0,2.5-1.3,2.5-3.1s-0.9-3.1-2.5-3.1c-1,0-2,0.6-2.4,1.3v3.6
				C415.5,249.1,416.5,249.7,417.5,249.7z"/>
			<path class="st3" d="M423.2,252.4c0.5,0,0.8-0.2,1.1-0.9l0.6-1.3l-3.1-7.3h0.9l2.6,6.3l2.6-6.3h0.9l-3.8,8.8
				c-0.4,0.9-1,1.3-1.9,1.3c-0.2,0-0.6,0-0.8-0.1l0.1-0.7C422.7,252.4,423,252.4,423.2,252.4z"/>
			<path class="st3" d="M433.8,248.6c0.5,0.6,1.3,1.1,2.3,1.1c1.2,0,1.9-0.6,1.9-1.5c0-0.9-1-1.2-2-1.4c-1.2-0.3-2.5-0.6-2.5-2
				c0-1.1,0.9-2,2.6-2c1.2,0,2.1,0.5,2.6,1.1l-0.4,0.6c-0.4-0.6-1.2-1-2.2-1c-1.1,0-1.8,0.6-1.8,1.3c0,0.8,0.9,1,1.9,1.3
				c1.2,0.3,2.6,0.7,2.6,2.2c0,1.2-0.9,2.1-2.7,2.1c-1.2,0-2.1-0.3-2.8-1.1L433.8,248.6z"/>
			<path class="st3" d="M443.9,242.8c2.2,0,3.4,1.8,3.4,3.8v0.2h-6.1c0.1,1.6,1.1,2.9,2.8,2.9c0.9,0,1.8-0.3,2.4-1l0.4,0.5
				c-0.7,0.8-1.6,1.2-2.8,1.2c-2.1,0-3.6-1.6-3.6-3.8C440.4,244.4,441.9,242.8,443.9,242.8z M441.3,246.2h5.3c0-1.2-0.8-2.8-2.6-2.8
				C442.2,243.4,441.4,244.9,441.3,246.2z"/>
			<path class="st3" d="M449.5,248.8v-5.2h-1.2v-0.7h1.2v-2h0.8v2h1.5v0.7h-1.5v5c0,0.6,0.2,1,0.8,1c0.3,0,0.6-0.2,0.8-0.3l0.3,0.6
				c-0.3,0.3-0.6,0.4-1.2,0.4C450,250.4,449.5,249.8,449.5,248.8z"/>
			<path class="st3" d="M453.6,248.8v-5.2h-1.2v-0.7h1.2v-2h0.8v2h1.5v0.7h-1.5v5c0,0.6,0.2,1,0.8,1c0.3,0,0.6-0.2,0.8-0.3l0.3,0.6
				c-0.3,0.3-0.6,0.4-1.2,0.4C454.1,250.4,453.6,249.8,453.6,248.8z"/>
			<path class="st3" d="M457.4,241.2c0-0.3,0.3-0.6,0.6-0.6c0.3,0,0.6,0.3,0.6,0.6s-0.3,0.6-0.6,0.6
				C457.7,241.8,457.4,241.5,457.4,241.2z M457.6,242.9h0.8v7.2h-0.8V242.9z"/>
			<path class="st3" d="M465.7,245.3c0-1.4-0.7-1.8-1.8-1.8c-0.9,0-1.9,0.6-2.4,1.2v5.5h-0.8v-7.2h0.8v1.1c0.5-0.6,1.6-1.3,2.6-1.3
				c1.5,0,2.3,0.7,2.3,2.4v5.1h-0.8V245.3z"/>
			<path class="st3" d="M469.4,251.4c0.6,0.8,1.3,1,2.4,1c1.3,0,2.5-0.7,2.5-2.3V249c-0.5,0.7-1.4,1.4-2.5,1.4
				c-1.9,0-3.2-1.5-3.2-3.8c0-2.3,1.3-3.8,3.2-3.8c1,0,1.9,0.5,2.5,1.3v-1.2h0.8v7.2c0,2.2-1.5,3-3.3,3c-1.2,0-2-0.2-2.8-1.1
				L469.4,251.4z M474.3,244.8c-0.4-0.7-1.4-1.3-2.4-1.3c-1.6,0-2.5,1.3-2.5,3.1s0.9,3.1,2.5,3.1c1,0,2-0.6,2.4-1.3V244.8z"/>
			<path class="st3" d="M481.2,248.6c0.5,0.6,1.3,1.1,2.3,1.1c1.2,0,1.9-0.6,1.9-1.5c0-0.9-1-1.2-2-1.4c-1.2-0.3-2.5-0.6-2.5-2
				c0-1.1,0.9-2,2.6-2c1.2,0,2.1,0.5,2.6,1.1l-0.4,0.6c-0.4-0.6-1.2-1-2.2-1c-1.1,0-1.8,0.6-1.8,1.3c0,0.8,0.9,1,1.9,1.3
				c1.2,0.3,2.6,0.7,2.6,2.2c0,1.2-0.9,2.1-2.7,2.1c-1.2,0-2.1-0.3-2.8-1.1L481.2,248.6z"/>
			<path class="st3" d="M487.8,246.5c0-2.1,1.4-3.8,3.5-3.8c2.1,0,3.5,1.7,3.5,3.8s-1.3,3.8-3.5,3.8
				C489.2,250.4,487.8,248.7,487.8,246.5z M494,246.5c0-1.6-0.9-3.1-2.7-3.1c-1.7,0-2.6,1.5-2.6,3.1c0,1.6,1,3.1,2.6,3.1
				C493,249.7,494,248.2,494,246.5z"/>
			<path class="st3" d="M505.4,245.1c0-1-0.4-1.7-1.5-1.7c-0.8,0-1.7,0.6-2.1,1.2v5.5h-0.8v-5.1c0-1-0.4-1.7-1.5-1.7
				c-0.8,0-1.6,0.6-2.1,1.2v5.5h-0.8v-7.2h0.8v1.1c0.3-0.5,1.3-1.3,2.3-1.3c1.1,0,1.7,0.7,1.9,1.4c0.4-0.7,1.4-1.4,2.4-1.4
				c1.3,0,2,0.8,2,2.2v5.2h-0.8V245.1z"/>
			<path class="st3" d="M511.7,242.8c2.2,0,3.4,1.8,3.4,3.8v0.2h-6.1c0.1,1.6,1.1,2.9,2.8,2.9c0.9,0,1.8-0.3,2.4-1l0.4,0.5
				c-0.7,0.8-1.6,1.2-2.8,1.2c-2.1,0-3.6-1.6-3.6-3.8C508.2,244.4,509.7,242.8,511.7,242.8z M509.1,246.2h5.3c0-1.2-0.8-2.8-2.6-2.8
				C510,243.4,509.1,244.9,509.1,246.2z"/>
			<path class="st3" d="M521.3,243.6h-1.2v-0.7h1.2v-0.7c0-1.4,0.8-2.2,2-2.2c0.4,0,0.7,0.1,1,0.2l-0.2,0.6
				c-0.2-0.1-0.4-0.2-0.7-0.2c-0.8,0-1.3,0.6-1.3,1.6v0.7h1.5v0.7h-1.5v6.6h-0.8V243.6z M524.8,241.2c0-0.3,0.3-0.6,0.6-0.6
				c0.3,0,0.6,0.3,0.6,0.6s-0.3,0.6-0.6,0.6C525.1,241.8,524.8,241.5,524.8,241.2z M525,242.9h0.8v7.2H525V242.9z"/>
			<path class="st3" d="M528.2,240.2h0.8v10h-0.8V240.2z"/>
			<path class="st3" d="M531.6,248.8v-5.2h-1.2v-0.7h1.2v-2h0.8v2h1.5v0.7h-1.5v5c0,0.6,0.2,1,0.8,1c0.3,0,0.6-0.2,0.8-0.3l0.3,0.6
				c-0.3,0.3-0.6,0.4-1.2,0.4C532,250.4,531.6,249.8,531.6,248.8z"/>
			<path class="st3" d="M538.6,242.8c2.2,0,3.4,1.8,3.4,3.8v0.2H536c0.1,1.6,1.1,2.9,2.8,2.9c0.9,0,1.8-0.3,2.4-1l0.4,0.5
				c-0.7,0.8-1.6,1.2-2.8,1.2c-2.1,0-3.6-1.6-3.6-3.8C535.1,244.4,536.6,242.8,538.6,242.8z M536,246.2h5.3c0-1.2-0.8-2.8-2.6-2.8
				C536.9,243.4,536,244.9,536,246.2z"/>
			<path class="st3" d="M544,242.9h0.8v1.2c0.6-0.8,1.4-1.4,2.4-1.4v0.9c-0.1,0-0.2,0-0.4,0c-0.7,0-1.7,0.7-2.1,1.3v5.3H544V242.9z"
				/>
			<path class="st3" d="M548.6,248.6c0.5,0.6,1.3,1.1,2.3,1.1c1.2,0,1.9-0.6,1.9-1.5c0-0.9-1-1.2-2-1.4c-1.2-0.3-2.5-0.6-2.5-2
				c0-1.1,0.9-2,2.6-2c1.2,0,2.1,0.5,2.6,1.1l-0.4,0.6c-0.4-0.6-1.2-1-2.2-1c-1.1,0-1.8,0.6-1.8,1.3c0,0.8,0.9,1,1.9,1.3
				c1.2,0.3,2.6,0.7,2.6,2.2c0,1.2-0.9,2.1-2.7,2.1c-1.2,0-2.1-0.3-2.8-1.1L548.6,248.6z"/>
			<path class="st3" d="M556.1,249c0.4,0,0.7,0.3,0.7,0.6c0,0.4-0.3,0.7-0.7,0.7c-0.4,0-0.7-0.3-0.7-0.7
				C555.4,249.3,555.7,249,556.1,249z"/>
		</g>
		<g class="st1">
			<path class="st3" d="M255.5,259h-3.3v-0.8h7.4v0.8h-3.3v9.2h-0.9V259z"/>
			<path class="st3" d="M266.2,263.2c0-1.4-0.7-1.8-1.8-1.8c-0.9,0-1.9,0.6-2.4,1.2v5.5h-0.8v-10h0.8v3.9c0.5-0.6,1.6-1.3,2.6-1.3
				c1.5,0,2.3,0.7,2.3,2.3v5.1h-0.8V263.2z"/>
			<path class="st3" d="M272.5,260.8c2.2,0,3.4,1.8,3.4,3.8v0.2h-6.1c0.1,1.6,1.1,2.9,2.8,2.9c0.9,0,1.8-0.3,2.4-1l0.4,0.5
				c-0.7,0.8-1.6,1.2-2.8,1.2c-2.1,0-3.6-1.6-3.6-3.8C269,262.4,270.5,260.8,272.5,260.8z M269.9,264.2h5.3c0-1.2-0.8-2.8-2.6-2.8
				C270.8,261.4,269.9,262.9,269.9,264.2z"/>
			<path class="st3" d="M282.8,263.3c0-1.4-0.7-1.8-1.8-1.8c-0.9,0-1.9,0.6-2.4,1.2v5.5h-0.8v-7.2h0.8v1.1c0.5-0.6,1.6-1.3,2.6-1.3
				c1.5,0,2.3,0.7,2.3,2.4v5.1h-0.8V263.3z"/>
			<path class="st3" d="M294.5,267.3c-0.6,0.7-1.5,1-2.5,1c-1.2,0-2.5-0.9-2.5-2.4c0-1.6,1.3-2.4,2.5-2.4c1,0,1.8,0.3,2.5,1v-1.5
				c0-1.1-0.9-1.7-2-1.7c-0.9,0-1.6,0.3-2.3,1.1l-0.4-0.5c0.8-0.8,1.6-1.2,2.8-1.2c1.5,0,2.6,0.7,2.6,2.3v5.1h-0.8V267.3z
				 M294.5,265.2c-0.5-0.7-1.3-1-2.2-1c-1.2,0-2,0.8-2,1.8c0,1,0.8,1.8,2,1.8c0.9,0,1.7-0.3,2.2-1V265.2z"/>
			<path class="st3" d="M303.1,267c-0.5,0.8-1.4,1.3-2.5,1.3c-1.9,0-3.2-1.5-3.2-3.8c0-2.3,1.3-3.8,3.2-3.8c1,0,1.9,0.5,2.5,1.3
				v-3.9h0.8v10h-0.8V267z M303.1,262.8c-0.4-0.7-1.4-1.3-2.4-1.3c-1.6,0-2.5,1.3-2.5,3.1s0.9,3.1,2.5,3.1c1,0,2-0.6,2.4-1.3V262.8z
				"/>
			<path class="st3" d="M311.6,267c-0.5,0.8-1.4,1.3-2.5,1.3c-1.9,0-3.2-1.5-3.2-3.8c0-2.3,1.3-3.8,3.2-3.8c1,0,1.9,0.5,2.5,1.3
				v-3.9h0.8v10h-0.8V267z M311.6,262.8c-0.4-0.7-1.4-1.3-2.4-1.3c-1.6,0-2.5,1.3-2.5,3.1s0.9,3.1,2.5,3.1c1,0,2-0.6,2.4-1.3V262.8z
				"/>
			<path class="st3" d="M318.6,266.6c0.5,0.6,1.3,1.1,2.3,1.1c1.2,0,1.9-0.6,1.9-1.5c0-0.9-1-1.2-2-1.4c-1.2-0.3-2.5-0.6-2.5-2
				c0-1.1,0.9-2,2.6-2c1.2,0,2.1,0.5,2.6,1.1l-0.4,0.6c-0.4-0.6-1.2-1-2.2-1c-1.1,0-1.8,0.6-1.8,1.3c0,0.8,0.9,1,1.9,1.3
				c1.2,0.3,2.6,0.7,2.6,2.2c0,1.2-0.9,2.1-2.7,2.1c-1.2,0-2.1-0.3-2.8-1.1L318.6,266.6z"/>
			<path class="st3" d="M325.2,264.5c0-2.1,1.4-3.8,3.5-3.8c2.1,0,3.5,1.7,3.5,3.8s-1.3,3.8-3.5,3.8
				C326.6,268.4,325.2,266.7,325.2,264.5z M331.4,264.5c0-1.6-0.9-3.1-2.7-3.1c-1.7,0-2.6,1.5-2.6,3.1c0,1.6,1,3.1,2.6,3.1
				C330.4,267.7,331.4,266.2,331.4,264.5z"/>
			<path class="st3" d="M342.8,263.1c0-1-0.4-1.7-1.5-1.7c-0.8,0-1.7,0.6-2.1,1.2v5.5h-0.8v-5.1c0-1-0.4-1.7-1.5-1.7
				c-0.8,0-1.6,0.6-2.1,1.2v5.5h-0.8v-7.2h0.8v1.1c0.3-0.5,1.3-1.3,2.3-1.3c1.1,0,1.7,0.7,1.9,1.4c0.4-0.7,1.4-1.4,2.4-1.4
				c1.3,0,2,0.8,2,2.2v5.2h-0.8V263.1z"/>
			<path class="st3" d="M349.1,260.8c2.2,0,3.4,1.8,3.4,3.8v0.2h-6.1c0.1,1.6,1.1,2.9,2.8,2.9c0.9,0,1.8-0.3,2.4-1l0.4,0.5
				c-0.7,0.8-1.6,1.2-2.8,1.2c-2.1,0-3.6-1.6-3.6-3.8C345.6,262.4,347.1,260.8,349.1,260.8z M346.5,264.2h5.3c0-1.2-0.8-2.8-2.6-2.8
				C347.4,261.4,346.5,262.9,346.5,264.2z"/>
			<path class="st3" d="M363.8,267c-0.5,0.8-1.4,1.3-2.5,1.3c-1.9,0-3.2-1.5-3.2-3.8c0-2.3,1.3-3.8,3.2-3.8c1,0,1.9,0.5,2.5,1.3
				v-3.9h0.8v10h-0.8V267z M363.8,262.8c-0.4-0.7-1.4-1.3-2.4-1.3c-1.6,0-2.5,1.3-2.5,3.1s0.9,3.1,2.5,3.1c1,0,2-0.6,2.4-1.3V262.8z
				"/>
			<path class="st3" d="M371.6,267.3c-0.6,0.7-1.5,1-2.5,1c-1.2,0-2.5-0.9-2.5-2.4c0-1.6,1.3-2.4,2.5-2.4c1,0,1.8,0.3,2.5,1v-1.5
				c0-1.1-0.9-1.7-2-1.7c-0.9,0-1.6,0.3-2.3,1.1L367,262c0.8-0.8,1.6-1.2,2.8-1.2c1.5,0,2.6,0.7,2.6,2.3v5.1h-0.8V267.3z
				 M371.6,265.2c-0.5-0.7-1.3-1-2.2-1c-1.2,0-2,0.8-2,1.8c0,1,0.8,1.8,2,1.8c0.9,0,1.7-0.3,2.2-1V265.2z"/>
			<path class="st3" d="M375,266.8v-5.2h-1.2v-0.7h1.2v-2h0.8v2h1.5v0.7h-1.5v5c0,0.6,0.2,1,0.7,1c0.3,0,0.6-0.2,0.8-0.3l0.3,0.6
				c-0.3,0.3-0.6,0.4-1.2,0.4C375.4,268.4,375,267.8,375,266.8z"/>
			<path class="st3" d="M383.5,267.3c-0.6,0.7-1.5,1-2.5,1c-1.2,0-2.5-0.9-2.5-2.4c0-1.6,1.3-2.4,2.5-2.4c1,0,1.8,0.3,2.5,1v-1.5
				c0-1.1-0.9-1.7-2-1.7c-0.9,0-1.6,0.3-2.3,1.1l-0.4-0.5c0.8-0.8,1.6-1.2,2.8-1.2c1.5,0,2.6,0.7,2.6,2.3v5.1h-0.8V267.3z
				 M383.5,265.2c-0.5-0.7-1.3-1-2.2-1c-1.2,0-2,0.8-2,1.8c0,1,0.8,1.8,2,1.8c0.9,0,1.7-0.3,2.2-1V265.2z"/>
			<path class="st3" d="M390.4,259.2c0-0.3,0.3-0.6,0.6-0.6c0.3,0,0.6,0.3,0.6,0.6s-0.3,0.6-0.6,0.6
				C390.7,259.8,390.4,259.5,390.4,259.2z M390.6,260.9h0.8v7.2h-0.8V260.9z"/>
			<path class="st3" d="M394,266.8v-5.2h-1.2v-0.7h1.2v-2h0.8v2h1.5v0.7h-1.5v5c0,0.6,0.2,1,0.7,1c0.3,0,0.6-0.2,0.8-0.3l0.3,0.6
				c-0.3,0.3-0.6,0.4-1.2,0.4C394.5,268.4,394,267.8,394,266.8z"/>
			<path class="st3" d="M401,260.8c2.2,0,3.4,1.8,3.4,3.8v0.2h-6.1c0.1,1.6,1.1,2.9,2.8,2.9c0.9,0,1.8-0.3,2.4-1l0.4,0.5
				c-0.7,0.8-1.6,1.2-2.8,1.2c-2.1,0-3.6-1.6-3.6-3.8C397.6,262.4,399,260.8,401,260.8z M398.4,264.2h5.3c0-1.2-0.8-2.8-2.6-2.8
				C399.3,261.4,398.5,262.9,398.4,264.2z"/>
			<path class="st3" d="M415.1,263.1c0-1-0.4-1.7-1.5-1.7c-0.8,0-1.7,0.6-2.1,1.2v5.5h-0.8v-5.1c0-1-0.4-1.7-1.5-1.7
				c-0.8,0-1.6,0.6-2.1,1.2v5.5h-0.8v-7.2h0.8v1.1c0.3-0.5,1.3-1.3,2.3-1.3c1.1,0,1.7,0.7,1.9,1.4c0.4-0.7,1.4-1.4,2.4-1.4
				c1.3,0,2,0.8,2,2.2v5.2h-0.8V263.1z"/>
			<path class="st3" d="M418.1,266.6c0.5,0.6,1.3,1.1,2.3,1.1c1.2,0,1.9-0.6,1.9-1.5c0-0.9-1-1.2-2-1.4c-1.2-0.3-2.5-0.6-2.5-2
				c0-1.1,0.9-2,2.6-2c1.2,0,2.1,0.5,2.6,1.1l-0.4,0.6c-0.4-0.6-1.2-1-2.2-1c-1.1,0-1.8,0.6-1.8,1.3c0,0.8,0.9,1,1.9,1.3
				c1.2,0.3,2.6,0.7,2.6,2.2c0,1.2-0.9,2.1-2.7,2.1c-1.2,0-2.1-0.3-2.8-1.1L418.1,266.6z"/>
			<path class="st3" d="M429.2,266.8v-5.2H428v-0.7h1.2v-2h0.8v2h1.5v0.7H430v5c0,0.6,0.2,1,0.8,1c0.3,0,0.6-0.2,0.8-0.3l0.3,0.6
				c-0.3,0.3-0.6,0.4-1.2,0.4C429.7,268.4,429.2,267.8,429.2,266.8z"/>
			<path class="st3" d="M432.8,264.5c0-2.1,1.4-3.8,3.5-3.8c2.1,0,3.5,1.7,3.5,3.8s-1.3,3.8-3.5,3.8
				C434.2,268.4,432.8,266.7,432.8,264.5z M438.9,264.5c0-1.6-0.9-3.1-2.7-3.1c-1.7,0-2.6,1.5-2.6,3.1c0,1.6,1,3.1,2.6,3.1
				C438,267.7,438.9,266.2,438.9,264.5z"/>
			<path class="st3" d="M451,267c-0.5,0.8-1.4,1.3-2.5,1.3c-1.9,0-3.2-1.5-3.2-3.8c0-2.3,1.3-3.8,3.2-3.8c1,0,1.9,0.5,2.5,1.3v-3.9
				h0.8v10H451V267z M451,262.8c-0.4-0.7-1.4-1.3-2.4-1.3c-1.6,0-2.5,1.3-2.5,3.1s0.9,3.1,2.5,3.1c1,0,2-0.6,2.4-1.3V262.8z"/>
			<path class="st3" d="M454.2,260.9h0.8v1.2c0.6-0.8,1.4-1.4,2.4-1.4v0.9c-0.1,0-0.2,0-0.4,0c-0.7,0-1.7,0.7-2.1,1.3v5.3h-0.8
				V260.9z"/>
			<path class="st3" d="M463.6,267.3c-0.6,0.7-1.5,1-2.5,1c-1.2,0-2.5-0.9-2.5-2.4c0-1.6,1.3-2.4,2.5-2.4c1,0,1.8,0.3,2.5,1v-1.5
				c0-1.1-0.9-1.7-2-1.7c-0.9,0-1.6,0.3-2.3,1.1l-0.4-0.5c0.8-0.8,1.6-1.2,2.8-1.2c1.5,0,2.6,0.7,2.6,2.3v5.1h-0.8V267.3z
				 M463.6,265.2c-0.5-0.7-1.3-1-2.2-1c-1.2,0-2,0.8-2,1.8c0,1,0.8,1.8,2,1.8c0.9,0,1.7-0.3,2.2-1V265.2z"/>
			<path class="st3" d="M471,262l-2,6.2h-0.8l-2.4-7.2h0.8l1.9,6.2l2-6.2h0.7l2,6.2l1.9-6.2h0.8l-2.4,7.2H473L471,262z"/>
			<path class="st3" d="M481.7,270.4c0.5,0,0.8-0.2,1.1-0.9l0.6-1.3l-3.1-7.3h0.9l2.6,6.3l2.6-6.3h0.9l-3.8,8.8
				c-0.4,0.9-1,1.3-1.9,1.3c-0.2,0-0.6,0-0.8-0.1l0.1-0.7C481.3,270.4,481.6,270.4,481.7,270.4z"/>
			<path class="st3" d="M488.3,264.5c0-2.1,1.4-3.8,3.5-3.8c2.1,0,3.5,1.7,3.5,3.8s-1.3,3.8-3.5,3.8
				C489.6,268.4,488.3,266.7,488.3,264.5z M494.4,264.5c0-1.6-0.9-3.1-2.7-3.1c-1.7,0-2.6,1.5-2.6,3.1c0,1.6,1,3.1,2.6,3.1
				C493.4,267.7,494.4,266.2,494.4,264.5z"/>
			<path class="st3" d="M502.1,267.1c-0.6,0.7-1.6,1.2-2.6,1.2c-1.5,0-2.3-0.7-2.3-2.3v-5.1h0.8v4.9c0,1.4,0.7,1.8,1.8,1.8
				c0.9,0,1.9-0.6,2.4-1.2v-5.5h0.8v7.2h-0.8V267.1z"/>
			<path class="st3" d="M505.3,260.9h0.8v1.2c0.6-0.8,1.4-1.4,2.4-1.4v0.9c-0.1,0-0.2,0-0.4,0c-0.7,0-1.7,0.7-2.1,1.3v5.3h-0.8
				V260.9z"/>
			<path class="st3" d="M517.1,260.8c1.3,0,2,0.5,2.6,1.2l-0.5,0.5c-0.5-0.7-1.2-1-2-1c-1.7,0-2.7,1.3-2.7,3.1s1,3.1,2.7,3.1
				c0.8,0,1.5-0.3,2-1l0.5,0.5c-0.6,0.8-1.3,1.2-2.6,1.2c-2.1,0-3.5-1.7-3.5-3.8S515,260.8,517.1,260.8z"/>
			<path class="st3" d="M526.3,263.2c0-1.4-0.7-1.8-1.8-1.8c-0.9,0-1.9,0.6-2.4,1.2v5.5h-0.8v-10h0.8v3.9c0.5-0.6,1.6-1.3,2.6-1.3
				c1.5,0,2.3,0.7,2.3,2.3v5.1h-0.8V263.2z"/>
			<path class="st3" d="M534.1,267.3c-0.6,0.7-1.5,1-2.5,1c-1.2,0-2.5-0.9-2.5-2.4c0-1.6,1.3-2.4,2.5-2.4c1,0,1.8,0.3,2.5,1v-1.5
				c0-1.1-0.9-1.7-2-1.7c-0.9,0-1.6,0.3-2.3,1.1l-0.4-0.5c0.8-0.8,1.6-1.2,2.8-1.2c1.5,0,2.6,0.7,2.6,2.3v5.1h-0.8V267.3z
				 M534.1,265.2c-0.5-0.7-1.3-1-2.2-1c-1.2,0-2,0.8-2,1.8c0,1,0.8,1.8,2,1.8c0.9,0,1.7-0.3,2.2-1V265.2z"/>
			<path class="st3" d="M537.3,260.9h0.8v1.2c0.6-0.8,1.4-1.4,2.4-1.4v0.9c-0.1,0-0.2,0-0.4,0c-0.7,0-1.7,0.7-2.1,1.3v5.3h-0.8
				V260.9z"/>
			<path class="st3" d="M542.2,266.8v-5.2H541v-0.7h1.2v-2h0.8v2h1.5v0.7H543v5c0,0.6,0.2,1,0.8,1c0.3,0,0.6-0.2,0.8-0.3l0.3,0.6
				c-0.3,0.3-0.6,0.4-1.2,0.4C542.7,268.4,542.2,267.8,542.2,266.8z"/>
			<path class="st3" d="M546.6,267c0.4,0,0.7,0.3,0.7,0.6c0,0.4-0.3,0.7-0.7,0.7s-0.7-0.3-0.7-0.7C545.9,267.3,546.2,267,546.6,267z
				"/>
		</g>
	</g>
	<g>
		<g>
			<path class="st4" d="M400,160.7C457.6,38.1,598.4,31.4,747.6,36.4"/>
			<g>
				<polygon class="st2" points="779.7,37.7 733.8,54.6 745.2,36.5 735,17.7 				"/>
			</g>
		</g>
	</g>
</g>
</svg>
