<?xml version="1.0" encoding="utf-8"?>
<!-- Generator: Adobe Illustrator 19.2.1, SVG Export Plug-In . SVG Version: 6.00 Build 0)  -->
<svg version="1.1" id="Layer_1" xmlns="http://www.w3.org/2000/svg" xmlns:xlink="http://www.w3.org/1999/xlink" x="0px" y="0px"
	 viewBox="0 0 28.8 31.2" style="enable-background:new 0 0 28.8 31.2;" xml:space="preserve">
<style type="text/css">
	.st0{display:none;}
	.st1{display:inline;}
	.st2{fill:#00897B;}
	.st3{fill:#FFFFFF;}
</style>
<g class="st0">
	
		<image style="display:inline;overflow:visible;opacity:0.35;enable-background:new    ;" width="103" height="76" xlink:href="2504B4670E7E2712.png"  transform="matrix(0.9891 0 0 0.9891 -13.9639 -12.0653)">
	</image>
	<g class="st1">
		<rect x="-10.3" y="-8.3" class="st2" width="91.5" height="65"/>
	</g>
</g>
<path class="st3" d="M25.3,31.2c-1.4,0-2.7-0.8-3.2-2.2l-1.2-3.3H7.8L6.6,29c-0.5,1.3-1.8,2.2-3.2,2.2c-2.1,0-3.4-1.7-3.4-3.5
	c0-0.4,0-0.8,0.2-1.2l9-23C9.8,1.4,11.9,0,14.1,0c2.3-0.2,4.7,1.2,5.6,3.4l8.9,23c0.1,0.4,0.2,0.8,0.2,1.2
	C28.8,29.4,27.4,31.2,25.3,31.2z"/>
</svg>
