<svg id="Laag_1" data-name="Laag 1" xmlns="http://www.w3.org/2000/svg" xmlns:xlink="http://www.w3.org/1999/xlink" viewBox="0 0 50.6 53.53"><defs><style>.cls-1,.cls-2{fill:none;}.cls-2{clip-path:url(#clip-path);}.cls-3{fill:#ced3d6;}.cls-4{clip-path:url(#clip-path-14);}.cls-5{fill:#dfb28b;}.cls-6{fill:#62aad3;}.cls-7{fill:#fff;}.cls-8{fill:#141720;}.cls-9{fill:#494949;}.cls-10{fill:#543e36;}.cls-11{fill:#6d6766;}</style><clipPath id="clip-path"><rect class="cls-1" width="50.84" height="50.84"/></clipPath><clipPath id="clip-path-14"><path class="cls-2" d="M0,25.3A25.3,25.3,0,1,0,25.3,0,25.3,25.3,0,0,0,0,25.3"/></clipPath></defs><title>avatar</title><path class="cls-3" d="M50.6,25.3A25.3,25.3,0,1,1,25.3,0,25.3,25.3,0,0,1,50.6,25.3"/><g class="cls-4"><path class="cls-5" d="M40,53.53H10.62A14.61,14.61,0,0,1,15,43.12l0.38-.36,0.59-.52,0.62-.49c0.28-.21.56-0.4,0.86-0.59s0.59-.36.9-0.53h0l0.35-.2a8.56,8.56,0,0,0,1-.69h0l0,0a9.27,9.27,0,0,0,2.91-4.08h0a9.23,9.23,0,0,0,.54-3.13h4.33a9.25,9.25,0,0,0,3.42,7.2l0,0h0L31.23,40l0.4,0.28,0.3,0.19,0.35,0.2h0l0,0c0.34,0.19.67,0.39,1,.6l0.32,0.22,0.42,0.3h0A14.62,14.62,0,0,1,40,53.53"/></g><g class="cls-4"><path class="cls-6" d="M40,53.53H10.62A14.61,14.61,0,0,1,15,43.12l0.38-.36,0.59-.52c0.2-.17.41-0.33,0.62-0.49s0.56-.4.86-0.59,0.59-.36.9-0.53h0l0.35-.2a8.56,8.56,0,0,0,1-.69l0,0a7.88,7.88,0,0,0,5.62,2.35h0a7.89,7.89,0,0,0,5.62-2.34l0,0L31.23,40l0.4,0.28,0.3,0.19,0.35,0.2h0.05c0.34,0.19.67,0.39,1,.6l0.32,0.22,0.42,0.3h0A14.62,14.62,0,0,1,40,53.53"/></g><g class="cls-4"><path class="cls-5" d="M36.55,13v9.18A15.53,15.53,0,0,1,28,35.6a6.83,6.83,0,0,1-2.68.65H25.16a7,7,0,0,1-2.56-.64A15.52,15.52,0,0,1,14,22.14V13H36.55Zm0,0"/></g><g class="cls-4"><path class="cls-7" d="M31,39.67l0,0.06a0.24,0.24,0,0,1,0,0,18.13,18.13,0,0,1-5.62,8,18.09,18.09,0,0,1-5.62-8.05l0,0,0-.05,0,0h0a8.4,8.4,0,0,0,11.2,0h0l0,0"/></g><g class="cls-4"><path class="cls-8" d="M36.5,21a1.65,1.65,0,0,0,0-.22V21h0Zm0,0"/></g><g class="cls-4"><path class="cls-8" d="M14,21V20.59a2.39,2.39,0,0,0,0,.45h0Zm0,0"/></g><g class="cls-4"><path class="cls-8" d="M36.54,20.59a2.1,2.1,0,0,1,0,.23V20.37a2,2,0,0,1,0,.22"/></g><g class="cls-4"><path class="cls-9" d="M34.55,17.91a0.09,0.09,0,0,0-.07-0.09,27.93,27.93,0,0,0-3.84-.29,43.1,43.1,0,0,0-5.13.64H25.1c-0.21,0-.9-0.14-1.78-0.29A21.08,21.08,0,0,0,20,17.53a28.45,28.45,0,0,0-3.29.21l-0.56.07a0.09,0.09,0,0,0-.07.09L16,19a0.09,0.09,0,0,0,.06.09l0.12,0c0.19,0.07.17,3.38,1.15,4.2,0.59,0.49,1.11.77,3.3,0.77a3.09,3.09,0,0,0,2.83-1.37,10.22,10.22,0,0,0,1-2.48,0.87,0.87,0,0,1,.75-0.78h0a0.85,0.85,0,0,1,.78.78,10.14,10.14,0,0,0,1,2.48,3.09,3.09,0,0,0,2.83,1.37c2.2,0,2.72-.28,3.3-0.77,1-.83,1-4.13,1.15-4.2l0.12,0A0.09,0.09,0,0,0,34.58,19ZM23.49,21.82a2.88,2.88,0,0,1-2.33,1.81c-3.52.18-3.68-.8-3.91-1.58a5.33,5.33,0,0,1-.2-2.24,1.9,1.9,0,0,1,.64-1.47,1.56,1.56,0,0,1,.74-0.26A14.24,14.24,0,0,1,20.37,18a10.12,10.12,0,0,1,1.57.12c1.25,0.2,2.1.63,2.1,1a7.88,7.88,0,0,1-.55,2.66M33.35,22c-0.23.78-.39,1.76-3.91,1.58a2.87,2.87,0,0,1-2.33-1.81,7.88,7.88,0,0,1-.55-2.66c0-.58,1.6-1.17,3.67-1.17s2.39,0.15,2.68.35a1.88,1.88,0,0,1,.64,1.47,5.34,5.34,0,0,1-.2,2.24"/></g><g class="cls-4"><path class="cls-10" d="M36.54,13l0,0H14v0C14,5.06,19.39,5.38,25.24,6H25.3l1.21,0.14a12.56,12.56,0,0,0,9.75-3.09c2.42,1.72,2.86,8.07.28,9.88"/></g><g class="cls-4"><path class="cls-10" d="M17.95,12.52l-0.06.19L17.8,13v0c0,0.07-.05.15-0.08,0.22A12.74,12.74,0,0,1,15.46,17a6.31,6.31,0,0,0-1.4,3.77s0,0.1,0,.15a1,1,0,0,0,0,.1c0,0.11,0,.23,0,0.34V13l0.23,0L15,12.88l0.9-.11,1.06-.13Zm0,0"/></g><g class="cls-4"><path class="cls-10" d="M36.53,13l-3.91-.47,0.06,0.19A12.67,12.67,0,0,0,35.11,17a6.56,6.56,0,0,1,1.42,4.38V13Zm0,0"/></g><g class="cls-4"><path class="cls-10" d="M33.6,12.53c0,0.87-3.74,1.58-8.36,1.58s-8.36-.71-8.36-1.58,3.74-1.59,8.36-1.59,8.36,0.71,8.36,1.59"/></g><g class="cls-4"><path class="cls-11" d="M25.24,29.43H23.71l1.54,3.08,1.54-3.08H25.24Zm0,0"/></g></svg>