<?xml version="1.0" encoding="utf-8"?>
<!-- Generator: Adobe Illustrator 19.2.1, SVG Export Plug-In . SVG Version: 6.00 Build 0)  -->
<svg version="1.1" id="d3plus" xmlns="http://www.w3.org/2000/svg" xmlns:xlink="http://www.w3.org/1999/xlink" x="0px" y="0px"
	 viewBox="0 0 949.8 478.5" style="enable-background:new 0 0 949.8 478.5;" xml:space="preserve">
<style type="text/css">
	.st0{clip-path:url(#SVGID_2_);}
	.st1{fill:#FFFFFF;stroke:#CCCCCC;}
	.st2{fill-opacity:0;}
	.st3{fill:none;stroke:#CCCCCC;}
	.st4{fill:#666666;}
	.st5{font-family:'ProximaNovaT-Thin';}
	.st6{font-size:10px;}
	.st7{fill:none;}
	.st8{fill:#444444;}
	.st9{font-size:12px;}
	.st10{opacity:0;}
</style>
<g id="key" transform="translate(0,518.5)">
</g>
<g id="footer" transform="translate(0,518.5)">
</g>
<g>
	<defs>
		<rect id="SVGID_1_" width="949.8" height="478.5"/>
	</defs>
	<clipPath id="SVGID_2_">
		<use xlink:href="#SVGID_1_"  style="overflow:visible;"/>
	</clipPath>
	<g id="container" transform="translate(0,0)" class="st0">
		<g id="zoom">
			<g id="d3plus_viz" transform="">
				<g id="app">
					<g id="bar">
						<g id="d3plus_graph_plane" transform="translate(71,10)">
							<rect id="d3plus_graph_background" shape-rendering="crispEdges" class="st1" width="868.8" height="419.5"/>
							<path id="d3plus_graph_mirror" class="st2" d="M868.8,419.5H0L868.8,0V419.5z"/>
							<g id="d3plus_graph_xticks" transform="translate(0,419.5)">
								<g transform="translate(31.026785714285815,0)">
									<line shape-rendering="crispEdges" class="st3" x1="0" y1="0" x2="0" y2="10"/>
									<text transform="matrix(1 0 0 1 -11.5899 23.8)" class="st4 st5 st6">2003</text>
								</g>
								<g transform="translate(93.04114890480211,0)">
									<line shape-rendering="crispEdges" class="st3" x1="0" y1="0" x2="0" y2="10"/>
									<text transform="matrix(1 0 0 1 -11.5549 23.8)" class="st4 st5 st6">2004</text>
								</g>
								<g transform="translate(155.22541446022393,0)">
									<line shape-rendering="crispEdges" class="st3" x1="0" y1="0" x2="0" y2="10"/>
									<text transform="matrix(1 0 0 1 -11.8049 23.8)" class="st4 st5 st6">2005</text>
								</g>
								<g transform="translate(217.23977765074022,0)">
									<line shape-rendering="crispEdges" class="st3" x1="0" y1="0" x2="0" y2="10"/>
									<text transform="matrix(1 0 0 1 -11.8199 23.8)" class="st4 st5 st6">2006</text>
								</g>
								<g transform="translate(279.2541408412565,0)">
									<line shape-rendering="crispEdges" class="st3" x1="0" y1="0" x2="0" y2="10"/>
									<text transform="matrix(1 0 0 1 -11.3799 23.8)" class="st4 st5 st6">2007</text>
								</g>
								<g transform="translate(341.2685040317728,0)">
									<line shape-rendering="crispEdges" class="st3" x1="0" y1="0" x2="0" y2="10"/>
									<text transform="matrix(1 0 0 1 -11.7399 23.8)" class="st4 st5 st6">2008</text>
								</g>
								<g transform="translate(403.4527695871946,0)">
									<line shape-rendering="crispEdges" class="st3" x1="0" y1="0" x2="0" y2="10"/>
									<text transform="matrix(1 0 0 1 -11.8199 23.8)" class="st4 st5 st6">2009</text>
								</g>
								<g transform="translate(465.46713277771084,0)">
									<line shape-rendering="crispEdges" class="st3" x1="0" y1="0" x2="0" y2="10"/>
									<text transform="matrix(1 0 0 1 -10.3199 23.8)" class="st4 st5 st6">2010</text>
								</g>
								<g transform="translate(527.4814959682273,0)">
									<line shape-rendering="crispEdges" class="st3" x1="0" y1="0" x2="0" y2="10"/>
									<text transform="matrix(1 0 0 1 -8.6799 23.8)" class="st4 st5 st6">2011</text>
								</g>
								<g transform="translate(589.4958591587434,0)">
									<line shape-rendering="crispEdges" class="st3" x1="0" y1="0" x2="0" y2="10"/>
									<text transform="matrix(1 0 0 1 -10.1799 23.8)" class="st4 st5 st6">2012</text>
								</g>
								<g transform="translate(651.6801247141652,0)">
									<line shape-rendering="crispEdges" class="st3" x1="0" y1="0" x2="0" y2="10"/>
									<text transform="matrix(1 0 0 1 -9.9499 23.8)" class="st4 st5 st6">2013</text>
								</g>
								<g transform="translate(713.6944879046816,0)">
									<line shape-rendering="crispEdges" class="st3" x1="0" y1="0" x2="0" y2="10"/>
									<text transform="matrix(1 0 0 1 -9.9149 23.8)" class="st4 st5 st6">2014</text>
								</g>
								<g transform="translate(775.7088510951978,0)">
									<line shape-rendering="crispEdges" class="st3" x1="0" y1="0" x2="0" y2="10"/>
									<text transform="matrix(1 0 0 1 -10.1649 23.8)" class="st4 st5 st6">2015</text>
								</g>
								<g transform="translate(837.7232142857142,0)">
									<line shape-rendering="crispEdges" class="st3" x1="0" y1="0" x2="0" y2="10"/>
									<text transform="matrix(1 0 0 1 -10.1799 23.8)" class="st4 st5 st6">2016</text>
								</g>
								<path class="st7" d="M0,10V0h868.8v10"/>
							</g>
							<g id="d3plus_graph_yticks" transform="translate(0, 0)">
								<g transform="translate(0,419.5)">
									<line shape-rendering="crispEdges" class="st3" x1="0" y1="0" x2="-10" y2="0"/>
									<text transform="matrix(1 0 0 1 -27.8899 3.2)" class="st4 st5 st6">€0</text>
								</g>
								<g transform="translate(0,386.3392047821141)">
									<line shape-rendering="crispEdges" class="st3" x1="0" y1="0" x2="-10" y2="0"/>
									<text transform="matrix(1 0 0 1 -41.3297 3.2)" class="st4 st5 st6">€50M</text>
								</g>
								<g transform="translate(0,353.1784095642282)">
									<line shape-rendering="crispEdges" class="st3" x1="0" y1="0" x2="-10" y2="0"/>
									<text transform="matrix(1 0 0 1 -44.4096 3.2)" class="st4 st5 st6">€100M</text>
								</g>
								<g transform="translate(0,320.0176143463423)">
									<line shape-rendering="crispEdges" class="st3" x1="0" y1="0" x2="-10" y2="0"/>
									<text transform="matrix(1 0 0 1 -44.0996 3.2)" class="st4 st5 st6">€150M</text>
								</g>
								<g transform="translate(0,286.85681912845644)">
									<line shape-rendering="crispEdges" class="st3" x1="0" y1="0" x2="-10" y2="0"/>
									<text transform="matrix(1 0 0 1 -47.4097 3.2)" class="st4 st5 st6">€200M</text>
								</g>
								<g transform="translate(0,253.69602391057057)">
									<line shape-rendering="crispEdges" class="st3" x1="0" y1="0" x2="-10" y2="0"/>
									<text transform="matrix(1 0 0 1 -47.0996 3.2)" class="st4 st5 st6">€250M</text>
								</g>
								<g transform="translate(0,220.53522869268468)">
									<line shape-rendering="crispEdges" class="st3" x1="0" y1="0" x2="-10" y2="0"/>
									<text transform="matrix(1 0 0 1 -46.9496 3.2)" class="st4 st5 st6">€300M</text>
								</g>
								<g transform="translate(0,187.37443347479885)">
									<line shape-rendering="crispEdges" class="st3" x1="0" y1="0" x2="-10" y2="0"/>
									<text transform="matrix(1 0 0 1 -46.6396 3.2)" class="st4 st5 st6">€350M</text>
								</g>
								<g transform="translate(0,154.21363825691296)">
									<line shape-rendering="crispEdges" class="st3" x1="0" y1="0" x2="-10" y2="0"/>
									<text transform="matrix(1 0 0 1 -46.8796 3.2)" class="st4 st5 st6">€400M</text>
								</g>
								<g transform="translate(0,121.05284303902707)">
									<line shape-rendering="crispEdges" class="st3" x1="0" y1="0" x2="-10" y2="0"/>
									<text transform="matrix(1 0 0 1 -46.5695 3.2)" class="st4 st5 st6">€450M</text>
								</g>
								<g transform="translate(0,87.89204782114119)">
									<line shape-rendering="crispEdges" class="st3" x1="0" y1="0" x2="-10" y2="0"/>
									<text transform="matrix(1 0 0 1 -47.3796 3.2)" class="st4 st5 st6">€500M</text>
								</g>
								<g transform="translate(0,54.731252603255314)">
									<line shape-rendering="crispEdges" class="st3" x1="0" y1="0" x2="-10" y2="0"/>
									<text transform="matrix(1 0 0 1 -47.0696 3.2)" class="st4 st5 st6">€550M</text>
								</g>
								<g transform="translate(0,21.57045738536943)">
									<line shape-rendering="crispEdges" class="st3" x1="0" y1="0" x2="-10" y2="0"/>
									<text transform="matrix(1 0 0 1 -47.4097 3.2)" class="st4 st5 st6">€600M</text>
								</g>
							</g>
							<g id="d3plus_graph_xgrid">
								<line shape-rendering="crispEdges" class="st3" x1="31" y1="0" x2="31" y2="419.5"/>
								<line shape-rendering="crispEdges" class="st3" x1="93" y1="0" x2="93" y2="419.5"/>
								<line shape-rendering="crispEdges" class="st3" x1="155.2" y1="0" x2="155.2" y2="419.5"/>
								<line shape-rendering="crispEdges" class="st3" x1="217.2" y1="0" x2="217.2" y2="419.5"/>
								<line shape-rendering="crispEdges" class="st3" x1="279.3" y1="0" x2="279.3" y2="419.5"/>
								<line shape-rendering="crispEdges" class="st3" x1="341.3" y1="0" x2="341.3" y2="419.5"/>
								<line shape-rendering="crispEdges" class="st3" x1="403.5" y1="0" x2="403.5" y2="419.5"/>
								<line shape-rendering="crispEdges" class="st3" x1="465.5" y1="0" x2="465.5" y2="419.5"/>
								<line shape-rendering="crispEdges" class="st3" x1="527.5" y1="0" x2="527.5" y2="419.5"/>
								<line shape-rendering="crispEdges" class="st3" x1="589.5" y1="0" x2="589.5" y2="419.5"/>
								<line shape-rendering="crispEdges" class="st3" x1="651.7" y1="0" x2="651.7" y2="419.5"/>
								<line shape-rendering="crispEdges" class="st3" x1="713.7" y1="0" x2="713.7" y2="419.5"/>
								<line shape-rendering="crispEdges" class="st3" x1="775.7" y1="0" x2="775.7" y2="419.5"/>
								<line shape-rendering="crispEdges" class="st3" x1="837.7" y1="0" x2="837.7" y2="419.5"/>
							</g>
							<g id="d3plus_graph_ygrid">
								<line shape-rendering="crispEdges" class="st3" x1="0" y1="419.5" x2="868.8" y2="419.5"/>
								<line shape-rendering="crispEdges" class="st3" x1="0" y1="386.3" x2="868.8" y2="386.3"/>
								<line shape-rendering="crispEdges" class="st3" x1="0" y1="353.2" x2="868.8" y2="353.2"/>
								<line shape-rendering="crispEdges" class="st3" x1="0" y1="320" x2="868.8" y2="320"/>
								<line shape-rendering="crispEdges" class="st3" x1="0" y1="286.9" x2="868.8" y2="286.9"/>
								<line shape-rendering="crispEdges" class="st3" x1="0" y1="253.7" x2="868.8" y2="253.7"/>
								<line shape-rendering="crispEdges" class="st3" x1="0" y1="220.5" x2="868.8" y2="220.5"/>
								<line shape-rendering="crispEdges" class="st3" x1="0" y1="187.4" x2="868.8" y2="187.4"/>
								<line shape-rendering="crispEdges" class="st3" x1="0" y1="154.2" x2="868.8" y2="154.2"/>
								<line shape-rendering="crispEdges" class="st3" x1="0" y1="121.1" x2="868.8" y2="121.1"/>
								<line shape-rendering="crispEdges" class="st3" x1="0" y1="87.9" x2="868.8" y2="87.9"/>
								<line shape-rendering="crispEdges" class="st3" x1="0" y1="54.7" x2="868.8" y2="54.7"/>
								<line shape-rendering="crispEdges" class="st3" x1="0" y1="21.6" x2="868.8" y2="21.6"/>
							</g>
							<g id="d3plus_graph_x_userlines">
							</g>
							<g id="d3plus_graph_y_userlines">
							</g>
						</g>
						<text id="d3plus_graph_xlabel" transform="matrix(1 0 0 1 463.6612 468.5)" class="st8 st5 st9">Year</text>
						<text id="d3plus_graph_ylabel" transform="matrix(6.123234e-17 -1 1 6.123234e-17 10 263.957)" class="st8 st5 st9">Transaction value</text>
					</g>
				</g>
				<g id="edges">
				</g>
				<g id="focus">
				</g>
				<g id="edge_hover" class="st10">
				</g>
				<g id="data_focus">
				</g>
				<g id="d3plus_labels">
				</g>
			</g>
		</g>
	</g>
</g>
</svg>
