<?xml version="1.0" encoding="utf-8"?>
<!-- Generator: Adobe Illustrator 19.2.1, SVG Export Plug-In . SVG Version: 6.00 Build 0)  -->
<svg version="1.1" baseProfile="tiny" id="Laag_1" xmlns="http://www.w3.org/2000/svg" xmlns:xlink="http://www.w3.org/1999/xlink"
	 x="0px" y="0px" viewBox="0 0 86 70" xml:space="preserve">
<g>
	<path fill="#FFFFFF" d="M16.6,48.3c0-0.1,0-0.1,0.1-0.2c0.2-1,0.9-1.6,1.9-1.8c1-0.1,1.7,0.4,2.2,1.1c0.1,0.2,0.2,0.2,0.4,0.3
		c2.4,0.4,4.7,0.7,7.1,1.1c1,0.2,2,0.3,3,0.4c0.3,0,0.5,0,0.7-0.2c0.6-0.5,1.2-0.6,2-0.4c0.2,0.1,0.4,0,0.5-0.1
		c2.6-2.1,5.1-4.1,7.7-6.2c0.2-0.2,0.3-0.3,0.3-0.5c0-1,0.6-1.8,1.6-2.1s2,0.2,2.5,1c0.2,0.4,0.3,0.9,0.3,1.4c0,0.3,0.1,0.4,0.2,0.6
		c2.6,2.6,5.3,5.3,7.9,7.9c0.1,0.1,0.3,0.2,0.5,0.2c0.8,0.2,1.3-0.1,1.9-0.6c3.5-3.3,7-6.5,10.6-9.8c0.2-0.2,0.2-0.3,0.2-0.6
		c0-1.2,0.7-2.1,1.8-2.4c1-0.2,2,0.3,2.4,1.2c0.5,0.9,0.3,1.9-0.4,2.6c-0.5,0.5-1.2,0.7-1.9,0.6c-0.2,0-0.3,0-0.5,0.1
		c-3.5,3.2-7,6.5-10.5,9.7c-0.2,0.2-0.3,0.3-0.5,0.5c-0.3,0.3-0.5,0.7-0.5,1.1c-0.1,1.2-1.3,2.2-2.5,2c-1.1-0.1-2-1.3-1.9-2.5
		c0-0.2,0-0.4-0.2-0.5c-2.7-2.7-5.3-5.3-8-8c-0.1-0.1-0.3-0.1-0.4-0.2c-0.9-0.2-1.5,0.1-2.2,0.7c-2.2,1.8-4.5,3.6-6.8,5.4
		c-0.2,0.2-0.3,0.4-0.3,0.6c-0.1,1.1-0.7,1.9-1.6,2.1c-0.9,0.2-1.7,0-2.3-0.7c-0.3-0.5-0.8-0.6-1.3-0.7c-2.8-0.4-5.7-0.9-8.5-1.3
		c-0.3,0-0.6-0.1-0.9-0.1c-0.3-0.1-0.5,0-0.7,0.2c-0.6,0.6-1.4,0.8-2.2,0.4c-0.7-0.3-1.2-0.8-1.4-1.5c0-0.1,0-0.1-0.1-0.2
		C16.6,48.7,16.6,48.5,16.6,48.3z"/>
	<path fill="#FFFFFF" d="M13.7,40.3c-0.1-1.5,1.6-2.6,3-2c0.4,0.2,0.7,0.1,1.1-0.1c3.4-1.6,6.8-3.1,10.1-4.7
		c0.2-0.1,0.3-0.2,0.3-0.3c0.3-1.3,1.4-2,2.7-1.8c0.2,0,0.4,0,0.6-0.2c2.5-2,5-4,7.6-6.1c0.2-0.1,0.2-0.3,0.3-0.5
		c0.1-1,0.5-1.8,1.5-2.1c1.3-0.5,2.7,0.3,2.9,1.7c0,0.3,0.2,0.4,0.4,0.6c2.3,1.3,4.6,2.7,6.8,4.1c0.4,0.3,0.9,0.4,1.4,0.3
		c0.2-0.1,0.4-0.1,0.6,0c0.4,0.1,0.7-0.1,1-0.4c3.6-3.4,7.2-6.7,10.9-10c0.2-0.1,0.2-0.3,0.3-0.5c0.1-0.4,0.1-0.9,0.3-1.3
		c0.3-0.7,0.8-1.1,1.6-1.2c0.9,0,1.7,0.2,2.1,1c0.4,0.7,0.6,1.5,0.1,2.2c-0.5,0.8-1.2,1.2-2.1,1.2c-0.3,0-0.5,0.1-0.7,0.2
		c-0.7,0.6-1.5,1.3-2.2,1.9c-3,2.8-6,5.6-9,8.3c-0.1,0.1-0.2,0.3-0.2,0.5c0,0.4-0.1,0.7-0.2,1.1c-0.3,1-1.1,1.4-2.1,1.4
		S51,33,50.8,32c-0.1-0.5-0.4-0.8-0.8-1c-2.3-1.4-4.6-2.8-7-4.2c-0.1-0.1-0.3-0.1-0.4,0c-0.5,0.1-1.1,0.2-1.6,0.1
		c-0.1,0-0.2,0-0.3,0.1c-2.6,2.1-5.2,4.1-7.7,6.2c-0.1,0.1-0.1,0.2-0.2,0.4c-0.1,0.3-0.1,0.5-0.2,0.8c-0.4,1.2-1.8,1.9-3,1.3
		c-0.3-0.1-0.6-0.1-0.9,0c-3.4,1.6-6.8,3.2-10.2,4.7c-0.2,0.1-0.3,0.2-0.3,0.4s-0.1,0.3-0.2,0.5c-0.4,0.8-1.1,1.3-2,1.3
		s-1.6-0.4-2-1.3C13.8,41,13.8,40.7,13.7,40.3z"/>
</g>
</svg>
