<?xml version="1.0" encoding="utf-8"?>
<!-- Generator: Adobe Illustrator 19.2.1, SVG Export Plug-In . SVG Version: 6.00 Build 0)  -->
<svg version="1.1" baseProfile="tiny" id="Laag_1" xmlns="http://www.w3.org/2000/svg" xmlns:xlink="http://www.w3.org/1999/xlink"
	 x="0px" y="0px" viewBox="0 0 86 70" xml:space="preserve">
<circle fill="#FFFFFF" cx="-769.9" cy="-116.5" r="0"/>
<g>
	<g>
		<path fill="#FFFFFF" d="M19.6,29.5c0.5-0.4,1-0.7,1.6-1.1c2.4-1.7,4.8-3.5,7.2-5.2c2.1-1.5,4.2-3.1,6.3-4.6c2-1.5,4-2.9,6.1-4.4
			c0.6-0.5,1.3-0.9,1.9-1.4c0.2-0.2,0.4-0.2,0.6,0c3,2.2,6,4.3,9,6.5c2.5,1.8,5.1,3.7,7.6,5.5c2.1,1.5,4.2,3,6.2,4.5
			c0.1,0.1,0.2,0.1,0.3,0.1c0,0.1,0,0.1,0,0.2c-0.1,0.1-0.1,0.2-0.2,0.4c-1,3-1.9,6-2.9,9c-0.9,2.9-1.9,5.8-2.8,8.7
			c-1,3-1.9,6-2.9,8.9c-0.1,0.2-0.2,0.4-0.5,0.4c-9.4,0-18.8,0-28.2,0c-0.3,0-0.4-0.1-0.5-0.3c-0.6-1.7-1.1-3.5-1.7-5.2
			c-0.7-2.2-1.5-4.5-2.2-6.7c-0.9-2.8-1.8-5.6-2.7-8.4c-0.5-1.5-1-3-1.4-4.4c-0.2-0.7-0.5-1.5-0.8-2.2
			C19.6,29.6,19.6,29.5,19.6,29.5z M64.5,30.3c-0.1,0-0.2,0-0.2,0c-1.7,0.4-3.4,0.8-5.2,1.2c-0.1,0-0.2,0.1-0.2,0.2
			c-0.1,0.2-0.3,0.4-0.4,0.6c-0.1,0.1-0.3,0.3-0.3,0.4c-0.4,1.3-0.9,2.7-1.3,4c-1.2,3.6-2.4,7.2-3.5,10.8c-0.1,0.4-0.3,0.8-0.2,1.2
			c0,0.1,0,0.3-0.1,0.5s-0.1,0.3,0,0.5c0.8,1.2,1.6,2.4,2.3,3.6c0.3,0.5,0.7,1.1,1.1,1.6C59.2,46.8,61.9,38.6,64.5,30.3z M56,55.5
			C56,55.4,56,55.4,56,55.5c-1.1-1.8-2.3-3.6-3.4-5.4c0-0.1-0.1-0.2-0.2-0.2c-0.4,0-0.8-0.1-1.2-0.1c-2.4,0.3-4.8,0.6-7.1,0.9
			c-3.6,0.5-7.2,0.9-10.8,1.4c-0.2,0-0.3,0.1-0.5,0.2c-0.3,0.3-0.6,0.4-0.9,0.4c-0.1,0-0.3,0.1-0.3,0.2c-0.2,0.3-0.5,0.7-0.7,1.1
			c-0.3,0.5-0.6,0.9-0.9,1.4C38.7,55.5,47.3,55.5,56,55.5z M21.5,30.3c2.7,8.3,5.4,16.5,8.1,24.8c0.6-0.9,1.1-1.8,1.7-2.6
			c-0.5-0.8-0.4-0.9,0-1.7c0.1-0.1,0-0.2,0-0.3c-0.3-1.6-0.6-3.1-0.9-4.7c-0.9-4.3-1.7-8.5-2.6-12.8c0-0.1-0.2-0.3-0.3-0.4
			c-0.3-0.2-0.6-0.5-0.6-0.9c0-0.3-0.2-0.4-0.4-0.4c-1.5-0.3-3-0.7-4.6-1C21.7,30.3,21.6,30.3,21.5,30.3z M33.4,51.1L33.4,51.1
			c1.8-0.2,3.5-0.5,5.3-0.7c3.8-0.5,7.7-1,11.5-1.5c0.4-0.1,0.7-0.1,0.9-0.6c0.1-0.3,0.1-0.4,0-0.7c-0.9-1.3-1.8-2.7-2.6-4
			c-0.1-0.2-0.2-0.2-0.5-0.2s-0.7-0.1-0.9-0.3s-0.4-0.2-0.7-0.2c-0.9,0.2-1.8,0.5-2.7,0.7c-1.9,0.5-3.8,0.9-5.8,1.4
			c-0.3,0.1-0.5,0.2-0.6,0.5c-0.1,0.4-0.4,0.7-0.8,0.7c-0.6-0.1-0.8,0.3-1,0.7c-0.1,0.2-0.2,0.3-0.3,0.5c-0.7,1.1-1.4,2.2-2.1,3.3
			C33,50.8,33,51,33,51c0.1,0.1,0.2,0.1,0.3,0.1C33.3,51.2,33.3,51.1,33.4,51.1z M43.3,14.7L43.3,14.7c-0.1,1-0.1,1.9-0.1,2.8
			c0,0.1,0.1,0.2,0.2,0.3c0.4,0.2,0.6,0.6,0.6,1c0,0.2,0.1,0.3,0.2,0.4c0.6,0.5,1.2,1,1.8,1.5c1.9,1.6,3.7,3.1,5.6,4.7
			c1.9,1.6,3.7,3.2,5.6,4.7c0.1,0.1,0.3,0.1,0.4,0.1c0.4,0,0.7,0.1,1,0.5c0.1,0.2,0.3,0.2,0.5,0.2c1-0.2,2.1-0.5,3.1-0.7
			c0.6-0.1,1.2-0.3,1.9-0.4C57.2,24.7,50.3,19.7,43.3,14.7z M21.8,29.8c1.7,0.4,3.4,0.8,5,1.1c0.1,0,0.2-0.1,0.4-0.1
			c0.3-0.1,0.5-0.2,0.8-0.3c0.2-0.1,0.4-0.1,0.5-0.2c2.2-1.8,4.4-3.7,6.6-5.6c2.2-1.8,4.4-3.7,6.6-5.6c0.1-0.1,0.2-0.3,0.2-0.5
			c0.1-0.3,0.2-0.7,0.4-0.8c0.5-0.2,0.5-0.6,0.4-1c0-0.2,0-0.5,0-0.7c0-0.5,0-1,0-1.7C35.7,19.7,28.8,24.7,21.8,29.8z M34,33.1
			c-1.6-0.4-3.2-0.7-4.8-1.1c-0.1,0-0.2,0-0.2,0c-0.1,0.3-0.4,0.5-0.3,0.9c0.5,2.5,1,5,1.5,7.5c0.7,3.3,1.3,6.5,2,9.8
			c0,0.1,0.1,0.3,0.2,0.5c0.1-0.1,0.2-0.2,0.2-0.2c0.9-1.4,1.8-2.8,2.7-4.2c0.1-0.1,0-0.3,0-0.4c-0.3-0.6-0.2-1.2,0.4-1.5
			c0.2-0.1,0.3-0.3,0.2-0.5c-0.2-2.2-0.4-4.5-0.6-6.7c-0.1-0.8-0.2-1.7-0.2-2.5c0-0.1-0.1-0.3-0.2-0.3C34.2,34.1,33.9,33.7,34,33.1z
			 M56.9,31.2c-0.2-0.2-0.3-0.3-0.4-0.4c-1.2-1-2.3-2-3.5-3c-1.7-1.4-3.3-2.8-5-4.2c-1.4-1.2-2.9-2.4-4.3-3.6
			c-0.1-0.1-0.2-0.1-0.3-0.1c0,0.1-0.1,0.2-0.1,0.3c0,1.9,0,3.8,0,5.7c0,0.2,0.1,0.3,0.3,0.5c0.4,0.2,0.6,0.6,0.6,1
			c0,0.3,0,0.4,0.3,0.6c1.9,1.4,3.8,2.8,5.7,4.2c0.1,0.1,0.3,0.1,0.4,0.1c0.5-0.1,0.9-0.1,1.2,0.3c0.1,0.1,0.2,0.1,0.3,0.1
			c1.5-0.3,2.9-0.7,4.4-1C56.6,31.5,56.7,31.4,56.9,31.2z M42.8,23.1c0-1,0-1.9,0-2.9c0-0.1-0.1-0.2-0.1-0.3
			c-0.1,0.1-0.3,0.1-0.3,0.2c-0.6,0.5-1.1,0.9-1.7,1.4c-1.9,1.6-3.7,3.2-5.6,4.7c-2,1.7-3.9,3.3-5.9,5c-0.1,0.1-0.1,0.2-0.2,0.2
			c0.1,0.1,0.2,0.1,0.3,0.2c1.5,0.3,3.1,0.7,4.6,1c0.2,0,0.4,0,0.5-0.1c0.4-0.2,0.7-0.3,1.1-0.2c0.1,0,0.3,0,0.5-0.1
			c0.5-0.3,1-0.7,1.5-1.1c1.4-1,2.8-2.1,4.3-3.1c0.2-0.1,0.3-0.2,0.2-0.5c-0.1-0.4,0.1-0.9,0.6-1.1c0.2-0.1,0.3-0.3,0.3-0.5
			C42.7,24.9,42.8,24,42.8,23.1z M51.9,47.8c0.3,0,0.4-0.1,0.5-0.4c0.3-1,0.6-1.9,0.9-2.9c1.3-3.9,2.6-7.9,3.8-11.8
			c0.1-0.3-0.2-0.7-0.6-0.6c-1.4,0.3-2.9,0.7-4.3,1c-0.1,0-0.2,0.2-0.2,0.3c-0.1,0.5-0.5,0.9-1,1c-0.2,0-0.3,0.1-0.4,0.3
			c-0.7,2.2-1.4,4.4-2.1,6.6c0,0.1,0,0.3,0.1,0.4c0.3,0.4,0.3,0.8,0.2,1.3c0,0.1,0,0.3,0,0.4c0.9,1.4,1.9,2.9,2.8,4.3
			C51.7,47.7,51.8,47.7,51.9,47.8z M43,35.4c-0.3,0.5-0.6,1-0.9,1.4c-1.6,2.5-3.2,5-4.8,7.5c-0.1,0.1-0.1,0.3-0.1,0.4
			c0.1,0,0.3,0.1,0.4,0c2.8-0.7,5.6-1.4,8.5-2.1c0.4-0.1,0.7-0.1,0.7-0.6c0-0.1,0-0.1,0.1-0.2c0.2-0.2,0.1-0.3,0-0.5
			c-0.9-1.4-1.8-2.8-2.7-4.2C43.8,36.5,43.4,36,43,35.4z M42.6,35c-0.2,0-0.3-0.1-0.4-0.1c-1.9-0.4-3.7-0.8-5.6-1.3
			c-0.3-0.1-0.5-0.1-0.6,0.2c0,0.1-0.2,0.2-0.3,0.3s-0.2,0.3-0.2,0.4c0.1,1.5,0.3,2.9,0.4,4.4c0.2,1.6,0.3,3.2,0.5,4.9
			c0,0.1,0.1,0.2,0.1,0.3c0.1-0.1,0.2-0.1,0.3-0.2c1.6-2.5,3.3-5,4.9-7.5C42,36,42.3,35.5,42.6,35z M43.4,35
			c0.1,0.2,0.2,0.3,0.3,0.5c0.7,1.1,1.5,2.3,2.2,3.4c0.4,0.7,0.9,1.4,1.3,2c0.1,0.2,0.3,0.4,0.5,0.3c0.1-0.1,0.2-0.2,0.3-0.4
			c0.1-0.4,0.3-0.8,0.4-1.2c0.6-1.7,1.1-3.5,1.7-5.2c0.1-0.4-0.3-0.9-0.7-0.8c-1.3,0.3-2.6,0.6-3.9,0.9C44.9,34.7,44.2,34.9,43.4,35
			z M43.3,34.5c0.1,0,0.2,0,0.2,0c2-0.5,4.1-0.9,6.1-1.4c0.1,0,0.2-0.2,0.3-0.3c0-0.1-0.1-0.2-0.2-0.3c-1.9-1.4-3.8-2.8-5.7-4.1
			c-0.2-0.1-0.3-0.2-0.5-0.1s-0.3,0.3-0.3,0.5c0,1.8,0,3.6,0,5.3C43.3,34.3,43.3,34.4,43.3,34.5z M42.8,34.5c0-0.2,0-0.3,0-0.5
			c0-1.7,0-3.4,0-5.1c0-0.2,0-0.4-0.3-0.6c-0.3-0.1-0.4,0-0.6,0.2c-1.4,1-2.9,2.1-4.3,3.1c-0.5,0.4-1,0.8-1.7,1.2
			c0.2,0.1,0.4,0.3,0.5,0.3c1.8,0.4,3.6,0.8,5.3,1.2C42.1,34.3,42.4,34.4,42.8,34.5z"/>
	</g>
</g>
</svg>
